<svg xmlns="http://www.w3.org/2000/svg" viewBox="0 0 226.58 242.910" width="200" height="250px"><defs><style>.a{fill:#fff;}</style></defs><title>Recurso 2</title><path class="a" d="M179.73,38.31c20.48,0,29.14,31.07,29.14,65.61,0,31.84-6.83,66-31,66H153.24v-3.47c4.89,0,6.62-4.05,6.62-13.31V54.9c0-8.3-1.12-13.12-6.62-13.12V38.31ZM173.92,150c0,10.42.92,12.74,4.48,12.74,4.48,0,7.33-3.28,9-6.37,4.69-8.88,5.81-34.15,5.81-51.9,0-23-1.83-43.8-6.62-52.87a11.65,11.65,0,0,0-9.88-6.17h-2.75Z"/><path class="a" d="M85.73,136.37H89c1.2,37.06,15.55,54.32,28.71,54.32,10.42,0,17.94-13.3,17.94-31.41,0-11.6-2.22-20.37-8.37-30.56-6.32-10.47-23.58-27.16-31.61-40.46C88.81,77,84.88,64.51,84.88,48.38,84.88,19.8,96.5,0,113.24,0c12.82,0,19.48,9.62,23.07,9.62,2.9,0,5.13-3.4,6.15-9.62h2.9V63.09h-2.9c-1-37.63-16.92-52.34-27.51-52.34-9.74,0-16.92,11-16.92,25.46a53.29,53.29,0,0,0,7.69,28.29c7.86,13,25.12,27.73,34.86,43.85,6.49,10.75,10.42,25.75,10.42,40.46,0,29.71-14,52.62-32.12,52.62-11.79,0-18.62-10.19-23.75-10.19-3.42,0-5.47,3.11-6.15,9.9H85.73Z"/><path class="a" d="M77.93,78.47H75.77c-1.26-22-11.16-34.07-22.17-34.07-12,0-20.45,22.91-20.45,59.83,0,29.53,8.8,61.7,23,61.7,5.95,0,8.42-2.67,11.74-9.46V118.22c0-10.41-1.77-14.76-8.73-15V100H88.55v3.22c-7.08,0-8.73,4.73-8.73,17.23v37.67C72.88,168.4,66.69,172.55,57,172.55c-21.83,0-38-27.82-38-65.87C19,72.8,29.73,37.77,52,37.77c8.33,0,16.73,8.33,19.26,8.33,2.15,0,3-2.65,3.16-8.33h2Z"/><path class="a" d="M12.13,179.35l.25,2.44-1.18.13a4.07,4.07,0,0,0-.57-1.07,1.68,1.68,0,0,0-.72-.51,2.49,2.49,0,0,0-1.06-.08,2.37,2.37,0,0,0-1.46.68,3.39,3.39,0,0,0-.86,1.77,9.15,9.15,0,0,0-.08,2.91A12.16,12.16,0,0,0,7,188.18a4.1,4.1,0,0,0,1,1.63,1.63,1.63,0,0,0,1.36.47,1.35,1.35,0,0,0,1.07-.57,2.28,2.28,0,0,0,.22-1.48l0-.32a6.26,6.26,0,0,0-.14-.93,1,1,0,0,0-.18-.4.68.68,0,0,0-.26-.19,2.6,2.6,0,0,0-.54-.14l-.06-.57,4.43-.47.06.57a1.3,1.3,0,0,0-.56.36.86.86,0,0,0-.17.45,4.08,4.08,0,0,0,0,.76l.34,3.23-1.21.39-.66-.55a4.58,4.58,0,0,1-2.3.87,4.69,4.69,0,0,1-3.92-1.07,6.74,6.74,0,0,1-1.71-4.3,8,8,0,0,1,.16-2.79,5,5,0,0,1,1-2.06,4.85,4.85,0,0,1,1.65-1.26,6.45,6.45,0,0,1,2.07-.57A12.57,12.57,0,0,1,12.13,179.35Z"/><path class="a" d="M20.84,191.4a4.81,4.81,0,0,1-3.62-2,6.55,6.55,0,0,1-.72-4.56,8,8,0,0,1,1-3.21,4.54,4.54,0,0,1,2.09-1.85,5.59,5.59,0,0,1,2.94-.34,4.93,4.93,0,0,1,3.7,2A6.49,6.49,0,0,1,27,186a9.15,9.15,0,0,1-.74,2.73,5,5,0,0,1-1.33,1.77,4.27,4.27,0,0,1-1.84.88A6.8,6.8,0,0,1,20.84,191.4ZM19.27,185a9.11,9.11,0,0,0,.14,3.93,2,2,0,0,0,1.75,1.51,1.84,1.84,0,0,0,1.18-.22,2.47,2.47,0,0,0,.88-.89,5.68,5.68,0,0,0,.6-1.45,14.86,14.86,0,0,0,.46-4.79,3.75,3.75,0,0,0-.6-1.84,1.87,1.87,0,0,0-1.33-.76,2,2,0,0,0-2,.95A8.4,8.4,0,0,0,19.27,185Z"/><path class="a" d="M32.71,194.46a4.81,4.81,0,0,1-3-2.82,6.66,6.66,0,0,1,.48-4.59A8.06,8.06,0,0,1,32,184.2,4.49,4.49,0,0,1,34.5,183a5.47,5.47,0,0,1,2.94.42,4.92,4.92,0,0,1,3.06,2.84,6.43,6.43,0,0,1-.44,4.56,9,9,0,0,1-1.42,2.44,5,5,0,0,1-1.74,1.36,4.35,4.35,0,0,1-2,.38A6.85,6.85,0,0,1,32.71,194.46Zm.13-6.59a9,9,0,0,0-.87,3.82,2,2,0,0,0,1.3,1.91,1.85,1.85,0,0,0,1.19.1,2.52,2.52,0,0,0,1.08-.64,5.42,5.42,0,0,0,1-1.25,15.18,15.18,0,0,0,1.68-4.51,3.82,3.82,0,0,0-.11-1.93A1.83,1.83,0,0,0,37,184.29a2,2,0,0,0-2.18.4A8.38,8.38,0,0,0,32.84,187.87Z"/><path class="a" d="M49.76,190.14a11.19,11.19,0,0,1,1.89,1.54,5.44,5.44,0,0,1,1,1.56,4.22,4.22,0,0,1,.37,1.64,4.68,4.68,0,0,1-.3,1.67,8,8,0,0,1-.92,1.78,8.72,8.72,0,0,1-1.62,1.83,5,5,0,0,1-1.81,1,4.58,4.58,0,0,1-1.78.16,6.26,6.26,0,0,1-1.92-.54,14.24,14.24,0,0,1-2-1.18l-3.28-2.21.32-.48a2.34,2.34,0,0,0,.52.13.63.63,0,0,0,.39-.07,1.17,1.17,0,0,0,.35-.31c.11-.14.25-.32.4-.55l4.16-6.16c.15-.22.27-.41.37-.57a1.18,1.18,0,0,0,.16-.43.78.78,0,0,0-.07-.39,2.25,2.25,0,0,0-.32-.45l.31-.47ZM43,198.53a6.24,6.24,0,0,0,.64.47,4.12,4.12,0,0,0,1.49.67,2.4,2.4,0,0,0,1,0,3.82,3.82,0,0,0,1.57-.8,9,9,0,0,0,1.67-1.92,7.24,7.24,0,0,0,1.16-2.5,3.31,3.31,0,0,0-.14-2,3.49,3.49,0,0,0-1.31-1.51c-.3-.2-.52-.34-.66-.42Z"/><path class="a" d="M53.25,203.65a3,3,0,0,0-.39,1.65,2,2,0,0,0,.85,1.33,2.38,2.38,0,0,0,.83.45,1.49,1.49,0,0,0,.86,0,1.66,1.66,0,0,0,.79-.59,2.07,2.07,0,0,0,.42-.85,2.35,2.35,0,0,0,0-1,7,7,0,0,0-.49-1.36,12.08,12.08,0,0,1-.53-1.31,4.85,4.85,0,0,1-.23-1.21,3.49,3.49,0,0,1,.13-1.12,3.29,3.29,0,0,1,2.1-2.12,3.3,3.3,0,0,1,1.91.08,6.54,6.54,0,0,1,2.06,1.16,13.11,13.11,0,0,1,1.1,1A13.76,13.76,0,0,1,63.69,201l-1.56,2-.93-.75a3.57,3.57,0,0,0,.34-1.11,1.56,1.56,0,0,0-.13-.86,2.1,2.1,0,0,0-.64-.75A2.13,2.13,0,0,0,60,199a1.47,1.47,0,0,0-.8,0,1.45,1.45,0,0,0-.69.51,1.77,1.77,0,0,0-.39.8,2.23,2.23,0,0,0,.07,1,9.32,9.32,0,0,0,.55,1.46,9,9,0,0,1,.64,1.89,3.59,3.59,0,0,1,0,1.47,3.4,3.4,0,0,1-.69,1.32,3.36,3.36,0,0,1-1.54,1.13,3.21,3.21,0,0,1-1.88,0,5.37,5.37,0,0,1-2-1.05,15.87,15.87,0,0,1-1.38-1.23A14.46,14.46,0,0,1,50.66,205l1.65-2.07Z"/><path class="a" d="M69.6,218.94a6.29,6.29,0,0,1-1.95-.35,7.33,7.33,0,0,1-1.75-1,4.37,4.37,0,0,1-1.76-2.18,2.48,2.48,0,0,1,.44-2.25,2.8,2.8,0,0,1,.57-.58,3.2,3.2,0,0,1,.69-.37,4.26,4.26,0,0,1,.82-.2,6.06,6.06,0,0,1,1,0,13.79,13.79,0,0,1,1.42.16,9.65,9.65,0,0,1,.06-1.29,4.09,4.09,0,0,1,.22-.86,3.32,3.32,0,0,1,.45-.8,2.5,2.5,0,0,1,1.27-.94,3.1,3.1,0,0,1,1.74,0,4.85,4.85,0,0,1,1.83.85,3.81,3.81,0,0,1,1.46,1.77,1.92,1.92,0,0,1-.31,1.81,2.12,2.12,0,0,1-.54.53,2.29,2.29,0,0,1-.73.34,4.57,4.57,0,0,1-1,.14c-.39,0-1,0-1.86-.1,0,.6.06,1.3.13,2.11s.14,1.48.21,2a3.88,3.88,0,0,0,1-.4,2.63,2.63,0,0,0,.69-.63.91.91,0,0,0,.22-.64.87.87,0,0,0-.37-.54l.34-.46,2.2,1.59-.29.4a3,3,0,0,1-.35.34,3.79,3.79,0,0,1-.38.31,3.51,3.51,0,0,1-.4.28,3.6,3.6,0,0,1-.44.24l-.47.2-.5.16-.54.13-.56.08a7.68,7.68,0,0,0,.13,1,2.46,2.46,0,0,0,.19.6,1,1,0,0,0,.29.35.91.91,0,0,0,.37.16,2.91,2.91,0,0,0,.63,0l0,.9a5,5,0,0,1-1.65,0,2.82,2.82,0,0,1-1.23-.51,2.78,2.78,0,0,1-.86-1A5.07,5.07,0,0,1,69.6,218.94Zm-.19-1.14c-.07-.67-.13-1.47-.19-2.39s-.1-1.64-.12-2.15a2.67,2.67,0,0,0-1.16.28,2.42,2.42,0,0,0-.86.75,1.93,1.93,0,0,0-.41,1.51,2.1,2.1,0,0,0,.92,1.31,3.48,3.48,0,0,0,.88.48A4.15,4.15,0,0,0,69.41,217.8Zm2.21-5.31a4.1,4.1,0,0,0,1.68-.14,2.09,2.09,0,0,0,1.05-.74,1.36,1.36,0,0,0,.31-1,1.08,1.08,0,0,0-.48-.79,1.33,1.33,0,0,0-.64-.26,1.18,1.18,0,0,0-.7.13,1.78,1.78,0,0,0-.66.59,2.77,2.77,0,0,0-.44.92A5.27,5.27,0,0,0,71.62,212.49Z"/><path class="a" d="M83,224.83a3,3,0,0,0,0,1.69,2,2,0,0,0,1.16,1.07,2.36,2.36,0,0,0,.91.22,1.38,1.38,0,0,0,.83-.24,1.68,1.68,0,0,0,.63-.77,2.09,2.09,0,0,0,.2-.93,2.42,2.42,0,0,0-.28-.95,7.34,7.34,0,0,0-.82-1.19,11.61,11.61,0,0,1-.83-1.14,4.82,4.82,0,0,1-.52-1.11,3.22,3.22,0,0,1-.16-1.12,3.05,3.05,0,0,1,.28-1.15,3,3,0,0,1,1.23-1.42,3.28,3.28,0,0,1,1.86-.39,6.52,6.52,0,0,1,2.28.61,12.7,12.7,0,0,1,1.31.69,13.8,13.8,0,0,1,1.35.92l-1,2.28-1.08-.49a3.78,3.78,0,0,0,.06-1.16,1.65,1.65,0,0,0-.34-.8,2.15,2.15,0,0,0-.8-.57,2.29,2.29,0,0,0-.88-.21,1.4,1.4,0,0,0-.78.22,1.45,1.45,0,0,0-.54.66,1.91,1.91,0,0,0-.18.87,2.35,2.35,0,0,0,.31.92,9.9,9.9,0,0,0,.89,1.27,8.6,8.6,0,0,1,1.09,1.68,3.31,3.31,0,0,1,.35,1.42,3.43,3.43,0,0,1-.33,1.45A3.35,3.35,0,0,1,88,228.63a3.15,3.15,0,0,1-1.81.5,5.42,5.42,0,0,1-2.18-.52c-.54-.25-1.09-.53-1.65-.85a17,17,0,0,1-1.53-1l1.1-2.42Z"/><path class="a" d="M102.92,222.34l-.69,2.65-1.16-.3a5,5,0,0,0-.19-1.19,1.52,1.52,0,0,0-.35-.57,2,2,0,0,0-.87-.4l-1.84-.47-1,4,1.11.29a1.39,1.39,0,0,0,.61,0,.86.86,0,0,0,.44-.25,3.24,3.24,0,0,0,.46-.69l.95.25-.87,3.39-1-.25a3.33,3.33,0,0,0-.07-.8.9.9,0,0,0-.25-.45,1.29,1.29,0,0,0-.57-.26L96.53,227l-1.16,4.46,1.83.48a2.51,2.51,0,0,0,.51.09,1.15,1.15,0,0,0,.39,0,1.27,1.27,0,0,0,.37-.17,2.43,2.43,0,0,0,.35-.27,4,4,0,0,0,.37-.42c.13-.18.3-.43.49-.75l1.16.3-1,3-8.28-2.15.14-.55a2.1,2.1,0,0,0,.54-.05.63.63,0,0,0,.34-.19,1.36,1.36,0,0,0,.22-.4c.06-.17.13-.39.19-.66l1.86-7.19c.07-.26.12-.48.15-.66a1.08,1.08,0,0,0,0-.46.71.71,0,0,0-.2-.34,2.06,2.06,0,0,0-.45-.32l.14-.55Z"/><path class="a" d="M108.62,234.78l-4.56-.33,0-.57a2.37,2.37,0,0,0,.52-.15.63.63,0,0,0,.3-.25,1.13,1.13,0,0,0,.15-.44,6.21,6.21,0,0,0,.07-.69l.54-7.41c0-.27,0-.5,0-.69a1.15,1.15,0,0,0-.08-.45.71.71,0,0,0-.26-.3,2.11,2.11,0,0,0-.5-.23l0-.57,5.06.37a9.5,9.5,0,0,1,1.73.27,4.48,4.48,0,0,1,1.22.52,2.69,2.69,0,0,1,.72.66,2.79,2.79,0,0,1,.42.89,3.49,3.49,0,0,1,.08,1.14,3.14,3.14,0,0,1-.4,1.42,3,3,0,0,1-.88.95,5.87,5.87,0,0,1-1.42.66v.08a3.12,3.12,0,0,1,1,.81,4.85,4.85,0,0,1,.68,1.22l.46,1.21a4.75,4.75,0,0,0,.64,1.23,1.5,1.5,0,0,0,.82.54l0,.57-3.35-.24a12.54,12.54,0,0,1-1-2.13l-.57-1.52a4.91,4.91,0,0,0-.45-1,1.14,1.14,0,0,0-.42-.41,1.77,1.77,0,0,0-.7-.16l-.5,0-.2,2.77a4.51,4.51,0,0,0,0,.9.76.76,0,0,0,.21.43,1.59,1.59,0,0,0,.62.32ZM108.46,224l-.35,4.78.86.06a3.05,3.05,0,0,0,1.16-.1,1.71,1.71,0,0,0,.75-.47,1.87,1.87,0,0,0,.42-.75,4.59,4.59,0,0,0,.17-1,2.49,2.49,0,0,0-.43-1.8,2.18,2.18,0,0,0-1.61-.7Z"/><path class="a" d="M123.91,225.62c.06-.25.11-.48.14-.69a3.4,3.4,0,0,0,0-.68.91.91,0,0,0-.28-.63,1.08,1.08,0,0,0-.71-.2l0-.57,3.74-.31,0,.57a1.47,1.47,0,0,0-.54.25,1.53,1.53,0,0,0-.37.49,5.22,5.22,0,0,0-.36,1l-2.83,9.89-2,.17L117,225.54a6.64,6.64,0,0,0-.39-.89,1.24,1.24,0,0,0-.37-.41,1.4,1.4,0,0,0-.6-.2l0-.57,4.79-.4.05.57a1.15,1.15,0,0,0-.65.3.73.73,0,0,0-.17.58,3.42,3.42,0,0,0,.1.55c.05.17.15.45.29.84l2.24,6Z"/><path class="a" d="M133.84,230.59c.05.2.1.38.15.54a1.86,1.86,0,0,0,.16.39.7.7,0,0,0,.21.23.79.79,0,0,0,.31.13,2,2,0,0,0,.45,0l.13.56-4.45,1.05-.13-.55a2.56,2.56,0,0,0,.45-.3.6.6,0,0,0,.21-.34,1.32,1.32,0,0,0,0-.46q0-.27-.13-.67L129.51,224c-.07-.27-.13-.48-.18-.66a1.13,1.13,0,0,0-.22-.4.6.6,0,0,0-.34-.21,2.45,2.45,0,0,0-.54-.07l-.13-.55,4.45-1.06.13.55a2,2,0,0,0-.47.32.67.67,0,0,0-.19.32,1,1,0,0,0,0,.42,5.37,5.37,0,0,0,.13.72Z"/><path class="a" d="M142.79,217.56l.92,2.32-1.1.44a2.88,2.88,0,0,0-1.15-1.09,1.59,1.59,0,0,0-1.27,0,2.24,2.24,0,0,0-1.45,2,8.4,8.4,0,0,0,.78,3.86,8,8,0,0,0,1.94,3.12,2,2,0,0,0,2.21.45,2.16,2.16,0,0,0,.88-.58,1.55,1.55,0,0,0,.37-.83,4.48,4.48,0,0,0-.06-1.26l1.11-.44,1,2.43c-.54.37-1,.69-1.51,1a13.74,13.74,0,0,1-1.49.7,6,6,0,0,1-3,.49,3.87,3.87,0,0,1-2.29-1.18,8.58,8.58,0,0,1-1.73-2.88,7.7,7.7,0,0,1-.61-3.26,4.73,4.73,0,0,1,1-2.68,5.69,5.69,0,0,1,2.49-1.8,12.39,12.39,0,0,1,1.52-.5A9.78,9.78,0,0,1,142.79,217.56Z"/><path class="a" d="M152.06,211.86l1.41,2.35-1,.61a5.38,5.38,0,0,0-1-.7,1.57,1.57,0,0,0-.65-.14,1.88,1.88,0,0,0-.9.34l-1.62,1,2.12,3.55,1-.59a1.42,1.42,0,0,0,.46-.4.88.88,0,0,0,.13-.49,3.5,3.5,0,0,0-.16-.81l.84-.5,1.8,3-.85.5A3.53,3.53,0,0,0,153,219a1,1,0,0,0-.5-.14,1.31,1.31,0,0,0-.58.22l-1,.59,2.37,3.95,1.62-1a3.39,3.39,0,0,0,.42-.3,1.13,1.13,0,0,0,.39-.69,1.77,1.77,0,0,0,.05-.44,4.37,4.37,0,0,0,0-.56,7.6,7.6,0,0,0-.19-.88l1-.61L158,222l-7.35,4.4-.29-.48a2.44,2.44,0,0,0,.34-.42.63.63,0,0,0,.1-.38,1.29,1.29,0,0,0-.13-.44q-.12-.25-.34-.6l-3.82-6.38c-.13-.23-.26-.42-.37-.57a1.13,1.13,0,0,0-.33-.33.67.67,0,0,0-.39-.1,2,2,0,0,0-.54.1l-.29-.48Z"/><path class="a" d="M160.16,216.92a2.94,2.94,0,0,0,1.5.79,2.06,2.06,0,0,0,1.5-.48,2.4,2.4,0,0,0,.63-.69,1.42,1.42,0,0,0,.19-.83,1.7,1.7,0,0,0-.37-.92,2,2,0,0,0-.72-.62,2.29,2.29,0,0,0-1-.22,7.53,7.53,0,0,0-1.44.14,11.36,11.36,0,0,1-1.4.17,4.4,4.4,0,0,1-1.23-.08,3.21,3.21,0,0,1-1.05-.4,2.83,2.83,0,0,1-.86-.8,3,3,0,0,1-.66-1.76,3.34,3.34,0,0,1,.56-1.83,6.62,6.62,0,0,1,1.64-1.7,14.18,14.18,0,0,1,1.24-.82c.41-.23.89-.48,1.46-.73l1.5,2-1,.72a3.7,3.7,0,0,0-1-.62,1.59,1.59,0,0,0-.86-.09,2.47,2.47,0,0,0-1.5,1.1,1.38,1.38,0,0,0-.19.78,1.47,1.47,0,0,0,.31.8,1.86,1.86,0,0,0,.67.57,2.25,2.25,0,0,0,1,.18,8.89,8.89,0,0,0,1.56-.16,8.59,8.59,0,0,1,2-.13,3.17,3.17,0,0,1,2.52,1.37,3.38,3.38,0,0,1,.7,1.77,3.23,3.23,0,0,1-.44,1.83,5.57,5.57,0,0,1-1.51,1.65q-.72.53-1.54,1a15.36,15.36,0,0,1-1.62.84l-1.59-2.12Z"/><path class="a" d="M170.09,197.83a11.2,11.2,0,0,1,2-1.33,5.5,5.5,0,0,1,1.8-.51,4.16,4.16,0,0,1,1.68.14,4.86,4.86,0,0,1,1.51.78,8.31,8.31,0,0,1,1.42,1.43,8.47,8.47,0,0,1,1.24,2.09,5.12,5.12,0,0,1,.39,2,4.49,4.49,0,0,1-.39,1.74,6,6,0,0,1-1.1,1.66,15.41,15.41,0,0,1-1.73,1.56l-3.1,2.45-.35-.44a3.24,3.24,0,0,0,.28-.46.72.72,0,0,0,0-.39,1.27,1.27,0,0,0-.19-.42c-.1-.15-.23-.34-.4-.55l-4.61-5.83c-.16-.21-.31-.39-.44-.52a1.15,1.15,0,0,0-.37-.28.7.7,0,0,0-.39-.05,2.37,2.37,0,0,0-.53.17l-.35-.45Zm6,9a7,7,0,0,0,.64-.47,4.13,4.13,0,0,0,1.09-1.21,2.44,2.44,0,0,0,.3-1,3.7,3.7,0,0,0-.29-1.74,8.56,8.56,0,0,0-1.32-2.18,7.18,7.18,0,0,0-2-1.86,3.27,3.27,0,0,0-2-.48,3.51,3.51,0,0,0-1.83.79c-.28.22-.48.39-.6.5Z"/><path class="a" d="M185.2,187.11l1.48,2.3-1,.65a4.91,4.91,0,0,0-1-.67,1.55,1.55,0,0,0-.65-.13,1.9,1.9,0,0,0-.89.37l-1.6,1,2.24,3.49,1-.63a1.35,1.35,0,0,0,.45-.41.9.9,0,0,0,.11-.5,3.16,3.16,0,0,0-.19-.8l.83-.54,1.89,3-.83.53a3.08,3.08,0,0,0-.64-.5,1,1,0,0,0-.5-.13,1.49,1.49,0,0,0-.57.24l-1,.63,2.49,3.88,1.59-1a3.05,3.05,0,0,0,.41-.31,1.2,1.2,0,0,0,.25-.31,1.48,1.48,0,0,0,.13-.39,2.26,2.26,0,0,0,0-.45,3.41,3.41,0,0,0-.06-.55,6.85,6.85,0,0,0-.22-.87l1-.65,1.56,2.74-7.21,4.61-.31-.48a2.27,2.27,0,0,0,.33-.43.63.63,0,0,0,.09-.38,1.3,1.3,0,0,0-.14-.44,6.64,6.64,0,0,0-.35-.59l-4-6.26c-.15-.22-.28-.42-.39-.56a1.21,1.21,0,0,0-.34-.32.74.74,0,0,0-.39-.08,2.42,2.42,0,0,0-.54.11l-.31-.48Z"/><path class="a" d="M197.51,190.4l-3.45,1.37,0,.86a6.5,6.5,0,0,0,.06.69,2.89,2.89,0,0,0,.18.67.84.84,0,0,0,1.18.51l.21.53-3.46,1.36-.21-.53a1.08,1.08,0,0,0,.45-.41,2,2,0,0,0,.22-.65,5.81,5.81,0,0,0,0-1l-.15-10.25,2.16-.85L201,190.6a6.81,6.81,0,0,0,.63.74,1.27,1.27,0,0,0,.48.28,1.37,1.37,0,0,0,.63,0l.21.53-4.46,1.77-.21-.53a1.2,1.2,0,0,0,.53-.48.74.74,0,0,0,0-.6,2.79,2.79,0,0,0-.28-.53,8.35,8.35,0,0,0-.48-.69Zm-3.52.31,2.91-1.16-3.09-4Z"/><path class="a" d="M207,179.7l.08.57a2.33,2.33,0,0,0-.46.25.66.66,0,0,0-.24.31,1,1,0,0,0-.07.45,5.74,5.74,0,0,0,.07.69l1.24,8.5,1.67-.25a1.81,1.81,0,0,0,.78-.28,1.36,1.36,0,0,0,.45-.54,3.19,3.19,0,0,0,.26-.89q.08-.54.11-1l1.18-.17.32,3.47L204.24,192l-.08-.57a2.28,2.28,0,0,0,.48-.26.65.65,0,0,0,.23-.32,1.19,1.19,0,0,0,.05-.45,5.74,5.74,0,0,0-.07-.69l-1.08-7.34a6.67,6.67,0,0,0-.12-.67,1.16,1.16,0,0,0-.17-.43.73.73,0,0,0-.32-.23,1.8,1.8,0,0,0-.54-.12l-.09-.57Z"/><path class="a" d="M215.28,187.93a3,3,0,0,0,.66,1.56,2.06,2.06,0,0,0,1.48.57,2.3,2.3,0,0,0,.92-.13,1.41,1.41,0,0,0,.69-.53,1.74,1.74,0,0,0,.28-.95,2,2,0,0,0-.16-.93,2.39,2.39,0,0,0-.61-.78,7.64,7.64,0,0,0-1.21-.8,11,11,0,0,1-1.19-.75,4.67,4.67,0,0,1-.9-.84,3.28,3.28,0,0,1-.56-1,3,3,0,0,1-.16-1.17,3,3,0,0,1,.6-1.78,3.31,3.31,0,0,1,1.59-1.06,6.58,6.58,0,0,1,2.34-.28,13,13,0,0,1,1.48.15,14.9,14.9,0,0,1,1.59.36l-.1,2.5-1.19-.05a3.53,3.53,0,0,0-.37-1.1,1.59,1.59,0,0,0-.62-.62,2.07,2.07,0,0,0-1-.23,2.17,2.17,0,0,0-.89.13,1.39,1.39,0,0,0-.64.48,1.44,1.44,0,0,0-.26.81,1.79,1.79,0,0,0,.16.87,2.24,2.24,0,0,0,.63.75,9.8,9.8,0,0,0,1.31.86,9,9,0,0,1,1.63,1.15,3.52,3.52,0,0,1,.86,1.19,3.71,3.71,0,0,1-.34,3.29,3.18,3.18,0,0,1-1.5,1.13,5.44,5.44,0,0,1-2.21.33c-.6,0-1.21-.09-1.85-.18a16.6,16.6,0,0,1-1.8-.37l.12-2.65Z"/><path class="a" d="M115.12,216.91c-21.3,0-33.18-9.62-46.95-20.76-8.06-6.52-16.32-13.2-26.57-17.75A68,68,0,0,0,.31,174.26L0,172.74A69.51,69.51,0,0,1,42.23,177c10.43,4.63,18.77,11.37,26.84,17.89,13.62,11,25.3,20.49,46,20.49s32.43-9.46,46-20.42c8.09-6.55,16.45-13.32,26.92-18a69.3,69.3,0,0,1,38.57-4.9l-.24,1.54a67.57,67.57,0,0,0-37.71,4.78c-10.27,4.57-18.55,11.27-26.56,17.75C148.31,207.29,136.42,216.91,115.12,216.91Z"/><path class="a" d="M115.12,242.91c-30.49,0-48.68-14.72-63.29-26.54-7-5.68-13.64-11-20.77-14.2a41.85,41.85,0,0,0-26.34-2.27l-.34-1.52a43.5,43.5,0,0,1,27.31,2.38c7.33,3.24,14,8.67,21.11,14.41,14.44,11.69,32.39,26.21,62.32,26.21s47.9-14.53,62.32-26.21c7.09-5.74,13.79-11.16,21.11-14.41a43,43,0,0,1,23.63-3l-.22,1.54a40.76,40.76,0,0,0-22.78,2.93c-7.13,3.17-13.75,8.53-20.75,14.2C163.81,228.19,145.62,242.91,115.12,242.91Z"/></svg>