<svg xmlns="http://www.w3.org/2000/svg" viewBox="0 0 193.78 63.65"><defs><style>.a{fill:#fff;}</style></defs><title>Recurso 9</title><path class="a" d="M47.09,10c5.36,0,7.63,8.14,7.63,17.19,0,8.34-1.79,17.29-8.11,17.29H40.15v-.91c1.28,0,1.73-1.06,1.73-3.49V14.38c0-2.17-.29-3.44-1.73-3.44V10ZM45.57,39.31c0,2.73.24,3.34,1.17,3.34A2.73,2.73,0,0,0,49.09,41c1.23-2.33,1.52-8.95,1.52-13.6,0-6-.48-11.48-1.73-13.85a3.05,3.05,0,0,0-2.59-1.62h-.72Z"/><path class="a" d="M22.46,35.73h.85C23.63,45.44,27.39,50,30.84,50c2.73,0,4.7-3.48,4.7-8.23a14.21,14.21,0,0,0-2.19-8c-1.66-2.74-6.18-7.12-8.28-10.6a19.33,19.33,0,0,1-2.82-10.45c0-7.49,3-12.68,7.43-12.68,3.36,0,5.1,2.52,6,2.52.76,0,1.34-.89,1.61-2.52h.76V16.53h-.76c-.27-9.86-4.43-13.71-7.21-13.71-2.55,0-4.43,2.89-4.43,6.67a14,14,0,0,0,2,7.41c2.06,3.41,6.58,7.26,9.13,11.49A21.28,21.28,0,0,1,39.56,39c0,7.78-3.67,13.79-8.42,13.79-3.09,0-4.88-2.67-6.22-2.67-.9,0-1.43.82-1.61,2.59h-.85Z"/><path class="a" d="M20.42,20.56h-.56c-.33-5.75-2.92-8.93-5.81-8.93-3.15,0-5.36,6-5.36,15.68,0,7.74,2.31,16.17,6,16.17,1.56,0,2.21-.7,3.08-2.48V31c0-2.73-.46-3.87-2.29-3.92v-.84H23.2v.84c-1.86,0-2.29,1.24-2.29,4.51v9.87c-1.82,2.68-3.44,3.77-6,3.77C9.2,45.21,5,37.92,5,28,5,19.07,7.79,9.9,13.62,9.9c2.18,0,4.38,2.18,5,2.18s.8-.69.83-2.18H20Z"/><path class="a" d="M3.18,47l.07.64-.31,0a1.07,1.07,0,0,0-.15-.28.44.44,0,0,0-.19-.13.65.65,0,0,0-.28,0,.62.62,0,0,0-.38.18.89.89,0,0,0-.23.46,2.4,2.4,0,0,0,0,.76,3.19,3.19,0,0,0,.14.67,1.07,1.07,0,0,0,.25.43.43.43,0,0,0,.36.12.35.35,0,0,0,.28-.15.6.6,0,0,0,.06-.39v-.08a1.64,1.64,0,0,0,0-.24.27.27,0,0,0,0-.11l-.07-.05-.14,0,0-.15,1.16-.12,0,.15a.34.34,0,0,0-.15.09.22.22,0,0,0,0,.12,1.07,1.07,0,0,0,0,.2l.09.85-.32.1L3,49.89a1.2,1.2,0,0,1-.6.23,1.23,1.23,0,0,1-1-.28A1.77,1.77,0,0,1,1,48.72,2.11,2.11,0,0,1,1,48a1.32,1.32,0,0,1,.27-.54,1.27,1.27,0,0,1,.43-.33A1.69,1.69,0,0,1,2.25,47,3.29,3.29,0,0,1,3.18,47Z"/><path class="a" d="M5.46,50.15a1.26,1.26,0,0,1-.95-.51,1.72,1.72,0,0,1-.19-1.19,2.09,2.09,0,0,1,.27-.84,1.19,1.19,0,0,1,.55-.48A1.47,1.47,0,0,1,5.91,47a1.29,1.29,0,0,1,1,.51,1.7,1.7,0,0,1,.2,1.18,2.4,2.4,0,0,1-.19.71,1.3,1.3,0,0,1-.35.46,1.12,1.12,0,0,1-.48.23A1.78,1.78,0,0,1,5.46,50.15ZM5,48.47a2.39,2.39,0,0,0,0,1,.54.54,0,0,0,.46.39.48.48,0,0,0,.31-.06.65.65,0,0,0,.23-.23,1.49,1.49,0,0,0,.16-.38A3.89,3.89,0,0,0,6.36,48a1,1,0,0,0-.16-.48.49.49,0,0,0-.35-.2.52.52,0,0,0-.53.25A2.2,2.2,0,0,0,5,48.47Z"/><path class="a" d="M8.57,51a1.26,1.26,0,0,1-.79-.74A1.74,1.74,0,0,1,7.91,49a2.11,2.11,0,0,1,.48-.74A1.18,1.18,0,0,1,9,47.94a1.43,1.43,0,0,1,.77.11,1.29,1.29,0,0,1,.8.74A1.69,1.69,0,0,1,10.5,50a2.35,2.35,0,0,1-.37.64,1.31,1.31,0,0,1-.46.36,1.14,1.14,0,0,1-.52.1A1.8,1.8,0,0,1,8.57,51Zm0-1.73a2.35,2.35,0,0,0-.23,1,.54.54,0,0,0,.34.5.49.49,0,0,0,.31,0,.66.66,0,0,0,.28-.17,1.42,1.42,0,0,0,.25-.33A4,4,0,0,0,10,49.07a1,1,0,0,0,0-.51.48.48,0,0,0-.29-.28.52.52,0,0,0-.57.11A2.2,2.2,0,0,0,8.6,49.22Z"/><path class="a" d="M13,49.82a2.93,2.93,0,0,1,.49.4,1.42,1.42,0,0,1,.27.41,1.11,1.11,0,0,1,.1.43,1.23,1.23,0,0,1-.08.44,2.1,2.1,0,0,1-.24.47,2.28,2.28,0,0,1-.42.48,1.31,1.31,0,0,1-.47.26,1.2,1.2,0,0,1-.47,0,1.64,1.64,0,0,1-.5-.14,3.73,3.73,0,0,1-.53-.31l-.86-.58.08-.12.14,0a.16.16,0,0,0,.1,0,.31.31,0,0,0,.09-.08l.11-.14,1.09-1.61.1-.15a.31.31,0,0,0,0-.11.21.21,0,0,0,0-.1.59.59,0,0,0-.08-.12l.08-.12ZM11.27,52l.17.12a1.08,1.08,0,0,0,.39.18.63.63,0,0,0,.26,0,1,1,0,0,0,.41-.21,2.35,2.35,0,0,0,.44-.5,1.9,1.9,0,0,0,.3-.66.87.87,0,0,0,0-.53.92.92,0,0,0-.34-.39l-.17-.11Z"/><path class="a" d="M14,53.36a.79.79,0,0,0-.1.43.53.53,0,0,0,.22.35.62.62,0,0,0,.22.12.39.39,0,0,0,.23,0,.44.44,0,0,0,.21-.15.54.54,0,0,0,.11-.22.61.61,0,0,0,0-.26,1.84,1.84,0,0,0-.13-.36,3.17,3.17,0,0,1-.14-.34,1.27,1.27,0,0,1-.06-.32.91.91,0,0,1,0-.29.86.86,0,0,1,.55-.55.86.86,0,0,1,.5,0,1.71,1.71,0,0,1,.54.3,3.44,3.44,0,0,1,.29.26,3.6,3.6,0,0,1,.28.32l-.41.51L16,53a.93.93,0,0,0,.09-.29.41.41,0,0,0,0-.22.55.55,0,0,0-.17-.2.56.56,0,0,0-.21-.11.39.39,0,0,0-.21,0,.38.38,0,0,0-.18.13.46.46,0,0,0-.1.21.58.58,0,0,0,0,.25,2.44,2.44,0,0,0,.14.38,2.35,2.35,0,0,1,.17.5.94.94,0,0,1,0,.38.89.89,0,0,1-.18.35.88.88,0,0,1-.4.29.84.84,0,0,1-.49,0,1.41,1.41,0,0,1-.52-.28,4.16,4.16,0,0,1-.36-.32,3.79,3.79,0,0,1-.32-.36l.43-.54Z"/><path class="a" d="M18.24,57.36a1.65,1.65,0,0,1-.51-.09,1.92,1.92,0,0,1-.46-.26,1.15,1.15,0,0,1-.46-.57.65.65,0,0,1,.12-.59.73.73,0,0,1,.15-.15l.18-.1.21-.05h.26l.37,0a2.53,2.53,0,0,1,0-.34,1.07,1.07,0,0,1,.06-.23.87.87,0,0,1,.12-.21.65.65,0,0,1,.33-.25.81.81,0,0,1,.45,0,1.27,1.27,0,0,1,.48.22,1,1,0,0,1,.38.46.5.5,0,0,1-.08.47.56.56,0,0,1-.14.14.6.6,0,0,1-.19.09,1.2,1.2,0,0,1-.27,0l-.49,0c0,.16,0,.34,0,.55s0,.39.05.53a1,1,0,0,0,.27-.11.69.69,0,0,0,.18-.16.24.24,0,0,0,.06-.17.23.23,0,0,0-.1-.14l.09-.12.58.42-.08.11-.09.09-.1.08-.11.07-.12.06-.12.05-.13,0-.14,0-.15,0a2,2,0,0,0,0,.25.64.64,0,0,0,0,.16.27.27,0,0,0,.08.09l.1,0h.17v.24a1.3,1.3,0,0,1-.43,0,.74.74,0,0,1-.32-.13.73.73,0,0,1-.22-.25A1.33,1.33,0,0,1,18.24,57.36Zm0-.3c0-.18,0-.38-.05-.63s0-.43,0-.56a.7.7,0,0,0-.3.07.63.63,0,0,0-.22.2.5.5,0,0,0-.11.39.55.55,0,0,0,.24.34.91.91,0,0,0,.23.13A1.09,1.09,0,0,0,18.19,57.07Zm.58-1.39a1.08,1.08,0,0,0,.44,0,.55.55,0,0,0,.28-.19.36.36,0,0,0,.08-.25.28.28,0,0,0-.12-.21.35.35,0,0,0-.17-.07.31.31,0,0,0-.18,0,.47.47,0,0,0-.17.15.73.73,0,0,0-.12.24A1.38,1.38,0,0,0,18.77,55.67Z"/><path class="a" d="M21.74,58.91a.78.78,0,0,0,0,.44.53.53,0,0,0,.3.28.62.62,0,0,0,.24.06.36.36,0,0,0,.22-.06.44.44,0,0,0,.16-.2.55.55,0,0,0,.05-.24.63.63,0,0,0-.07-.25,1.92,1.92,0,0,0-.21-.31,3,3,0,0,1-.22-.3,1.26,1.26,0,0,1-.14-.29.84.84,0,0,1,0-.29.8.8,0,0,1,.07-.3.79.79,0,0,1,.32-.37.86.86,0,0,1,.49-.1,1.71,1.71,0,0,1,.6.16l.34.18a3.62,3.62,0,0,1,.35.24l-.27.6L23.67,58a1,1,0,0,0,0-.3.43.43,0,0,0-.09-.21.56.56,0,0,0-.21-.15.6.6,0,0,0-.23-.05.37.37,0,0,0-.2.06.38.38,0,0,0-.14.17.5.5,0,0,0,0,.23.62.62,0,0,0,.08.24,2.6,2.6,0,0,0,.23.33,2.25,2.25,0,0,1,.29.44.87.87,0,0,1,.09.37.9.9,0,0,1-.09.38.88.88,0,0,1-.32.38.83.83,0,0,1-.47.13A1.42,1.42,0,0,1,22,59.9l-.43-.22a4.45,4.45,0,0,1-.4-.26l.29-.63Z"/><path class="a" d="M27,58.25l-.18.7-.3-.08a1.3,1.3,0,0,0-.05-.31.4.4,0,0,0-.09-.15.52.52,0,0,0-.23-.11l-.48-.12-.27,1,.29.08a.36.36,0,0,0,.16,0,.23.23,0,0,0,.12-.07.85.85,0,0,0,.12-.18l.25.06-.23.89L25.81,60a.87.87,0,0,0,0-.21.24.24,0,0,0-.07-.12.34.34,0,0,0-.15-.07l-.29-.08L25,60.65l.48.12.13,0h.1l.1,0,.09-.07.1-.11.13-.2.3.08-.25.79L24,60.67l0-.14h.14a.17.17,0,0,0,.09-.05.36.36,0,0,0,.06-.11s0-.1.05-.17l.49-1.88c0-.07,0-.13,0-.17a.28.28,0,0,0,0-.12.19.19,0,0,0-.05-.09l-.12-.08,0-.14Z"/><path class="a" d="M28.46,61.51l-1.19-.09v-.15l.14,0a.16.16,0,0,0,.08-.07.3.3,0,0,0,0-.12,1.63,1.63,0,0,0,0-.18l.14-1.94c0-.07,0-.13,0-.18a.3.3,0,0,0,0-.12.19.19,0,0,0-.07-.08l-.13-.06v-.15l1.33.1a2.49,2.49,0,0,1,.45.07,1.17,1.17,0,0,1,.32.14.7.7,0,0,1,.19.17.73.73,0,0,1,.11.23.91.91,0,0,1,0,.3.82.82,0,0,1-.11.37.78.78,0,0,1-.23.25,1.54,1.54,0,0,1-.37.17v0a.82.82,0,0,1,.26.21,1.27,1.27,0,0,1,.18.32l.12.32a1.24,1.24,0,0,0,.17.32.39.39,0,0,0,.21.14v.15l-.88-.06A3.29,3.29,0,0,1,29,61l-.15-.4a1.29,1.29,0,0,0-.12-.25.3.3,0,0,0-.11-.11.46.46,0,0,0-.18,0h-.13l-.05.73a1.18,1.18,0,0,0,0,.24.2.2,0,0,0,.05.11.42.42,0,0,0,.16.08Zm0-2.83-.09,1.25.23,0a.8.8,0,0,0,.3,0,.45.45,0,0,0,.2-.12.49.49,0,0,0,.11-.2,1.2,1.2,0,0,0,0-.25.65.65,0,0,0-.11-.47.57.57,0,0,0-.42-.18Z"/><path class="a" d="M32.47,59.12c0-.06,0-.12,0-.18a.89.89,0,0,0,0-.18.24.24,0,0,0-.07-.16.28.28,0,0,0-.19-.05v-.15l1-.08v.15a.39.39,0,0,0-.14.07.4.4,0,0,0-.1.13,1.37,1.37,0,0,0-.09.26l-.74,2.59-.53,0-1-2.46a1.74,1.74,0,0,0-.1-.23.33.33,0,0,0-.1-.11.37.37,0,0,0-.16-.05v-.15l1.26-.11v.15a.3.3,0,0,0-.17.08.19.19,0,0,0,0,.15.89.89,0,0,0,0,.14l.08.22L32,60.77Z"/><path class="a" d="M35.07,60.42l0,.14a.49.49,0,0,0,0,.1.18.18,0,0,0,.05.06l.08,0h.12l0,.15-1.17.28,0-.14.12-.08a.16.16,0,0,0,.05-.09.35.35,0,0,0,0-.12l0-.18-.45-1.9,0-.17a.3.3,0,0,0-.06-.11.16.16,0,0,0-.09-.05l-.14,0,0-.14,1.17-.28,0,.14-.12.08a.18.18,0,0,0,0,.08.27.27,0,0,0,0,.11,1.41,1.41,0,0,0,0,.19Z"/><path class="a" d="M37.41,57l.24.61-.29.12a.75.75,0,0,0-.3-.29.42.42,0,0,0-.33,0,.59.59,0,0,0-.38.52,2.2,2.2,0,0,0,.2,1,2.08,2.08,0,0,0,.51.82.54.54,0,0,0,.58.12.56.56,0,0,0,.23-.15.41.41,0,0,0,.1-.22,1.17,1.17,0,0,0,0-.33l.29-.12.25.64L38.1,60a3.6,3.6,0,0,1-.39.18,1.56,1.56,0,0,1-.78.13,1,1,0,0,1-.6-.31,2.25,2.25,0,0,1-.45-.75,2,2,0,0,1-.16-.85,1.24,1.24,0,0,1,.25-.7,1.49,1.49,0,0,1,.65-.47l.4-.13A2.56,2.56,0,0,1,37.41,57Z"/><path class="a" d="M39.84,55.51l.37.62-.27.16a1.41,1.41,0,0,0-.26-.18.41.41,0,0,0-.17,0,.49.49,0,0,0-.24.09l-.43.25.56.93.26-.15a.37.37,0,0,0,.12-.11.23.23,0,0,0,0-.13.92.92,0,0,0,0-.21l.22-.13.47.79-.22.13a.93.93,0,0,0-.16-.13.27.27,0,0,0-.13,0,.34.34,0,0,0-.15.06l-.26.15.62,1,.42-.25.11-.08.07-.08a.37.37,0,0,0,0-.1.46.46,0,0,0,0-.12,1.14,1.14,0,0,0,0-.15,2,2,0,0,0-.05-.23l.27-.16.39.73-1.93,1.15-.08-.13.09-.11a.17.17,0,0,0,0-.1.34.34,0,0,0,0-.12l-.09-.16L38.4,57l-.1-.15a.3.3,0,0,0-.09-.09.18.18,0,0,0-.1,0l-.14,0-.08-.13Z"/><path class="a" d="M42,56.84a.77.77,0,0,0,.39.21.54.54,0,0,0,.39-.13.63.63,0,0,0,.17-.18.37.37,0,0,0,.05-.22.45.45,0,0,0-.1-.24.53.53,0,0,0-.19-.16.6.6,0,0,0-.25-.06,2,2,0,0,0-.38,0l-.37,0a1.15,1.15,0,0,1-.32,0,.84.84,0,0,1-.28-.11.74.74,0,0,1-.23-.21.79.79,0,0,1-.17-.46.88.88,0,0,1,.15-.48,1.73,1.73,0,0,1,.43-.45l.32-.21L42,54l.39.53-.25.19a1,1,0,0,0-.26-.16.42.42,0,0,0-.23,0,.65.65,0,0,0-.39.29.36.36,0,0,0,0,.21.39.39,0,0,0,.08.21.49.49,0,0,0,.18.15.59.59,0,0,0,.25,0,2.33,2.33,0,0,0,.41,0,2.25,2.25,0,0,1,.52,0,.83.83,0,0,1,.66.36.89.89,0,0,1,.18.46.85.85,0,0,1-.12.48,1.46,1.46,0,0,1-.4.43l-.4.27a4,4,0,0,1-.42.22L41.71,57Z"/><path class="a" d="M44.57,51.83a2.93,2.93,0,0,1,.54-.35,1.44,1.44,0,0,1,.47-.13,1.09,1.09,0,0,1,.44,0,1.27,1.27,0,0,1,.39.21,2.18,2.18,0,0,1,.37.37,2.22,2.22,0,0,1,.33.55,1.34,1.34,0,0,1,.1.53,1.18,1.18,0,0,1-.1.45,1.58,1.58,0,0,1-.29.44,4,4,0,0,1-.45.41l-.81.64-.09-.12.07-.12a.19.19,0,0,0,0-.1.33.33,0,0,0,0-.11l-.11-.14-1.21-1.53-.12-.14a.3.3,0,0,0-.1-.07.18.18,0,0,0-.1,0l-.14,0-.09-.12Zm1.56,2.35.17-.12a1.08,1.08,0,0,0,.29-.32.64.64,0,0,0,.08-.25,1,1,0,0,0-.08-.45,2.24,2.24,0,0,0-.35-.57A1.88,1.88,0,0,0,45.7,52a.86.86,0,0,0-.52-.12.92.92,0,0,0-.48.21l-.16.13Z"/><path class="a" d="M48.53,49l.39.6-.26.17a1.29,1.29,0,0,0-.27-.18.41.41,0,0,0-.17,0,.5.5,0,0,0-.23.1l-.42.27.59.91.25-.16a.35.35,0,0,0,.12-.11.24.24,0,0,0,0-.13.83.83,0,0,0,0-.21l.22-.14.49.77L49,51a.81.81,0,0,0-.17-.13.26.26,0,0,0-.13,0,.39.39,0,0,0-.15.06l-.25.16.65,1,.42-.27.11-.08.06-.08a.39.39,0,0,0,0-.1.59.59,0,0,0,0-.12.89.89,0,0,0,0-.14,1.79,1.79,0,0,0-.06-.23l.26-.17.41.72-1.89,1.21-.08-.12a.6.6,0,0,0,.09-.11.16.16,0,0,0,0-.1.34.34,0,0,0,0-.12l-.09-.15-1.05-1.64-.1-.15a.32.32,0,0,0-.09-.08l-.1,0-.14,0-.08-.12Z"/><path class="a" d="M51.75,49.89l-.9.36v.23a1.7,1.7,0,0,0,0,.18.76.76,0,0,0,0,.18.22.22,0,0,0,.31.13l.05.14-.91.36-.05-.14a.28.28,0,0,0,.12-.11A.51.51,0,0,0,50.5,51a1.52,1.52,0,0,0,0-.27l0-2.68.57-.22,1.63,2.07.17.19a.33.33,0,0,0,.12.07.36.36,0,0,0,.17,0l.05.14L52,50.81,52,50.67a.32.32,0,0,0,.14-.12.19.19,0,0,0,0-.16.73.73,0,0,0-.07-.14l-.13-.18Zm-.92.08.76-.3-.81-1Z"/><path class="a" d="M54.25,47.08l0,.15-.12.07a.17.17,0,0,0-.06.08.27.27,0,0,0,0,.12,1.5,1.5,0,0,0,0,.18l.33,2.23.44-.06a.48.48,0,0,0,.21-.07.36.36,0,0,0,.12-.14.84.84,0,0,0,.07-.23q0-.14,0-.26l.31,0,.08.91-2.15.32,0-.15.12-.07a.17.17,0,0,0,.06-.08.31.31,0,0,0,0-.12,1.5,1.5,0,0,0,0-.18l-.28-1.92a1.75,1.75,0,0,0,0-.18.3.3,0,0,0,0-.11.19.19,0,0,0-.08-.06l-.14,0,0-.15Z"/><path class="a" d="M56.41,49.24a.78.78,0,0,0,.17.41.54.54,0,0,0,.39.15.6.6,0,0,0,.24,0,.37.37,0,0,0,.18-.14.45.45,0,0,0,.07-.25.53.53,0,0,0,0-.24.63.63,0,0,0-.16-.2,2,2,0,0,0-.32-.21l-.31-.2a1.22,1.22,0,0,1-.24-.22.86.86,0,0,1-.15-.26.77.77,0,0,1,0-.31.8.8,0,0,1,.16-.47.87.87,0,0,1,.42-.28,1.72,1.72,0,0,1,.61-.07l.39,0,.42.09,0,.65h-.31a.92.92,0,0,0-.1-.29.42.42,0,0,0-.16-.16.54.54,0,0,0-.25-.06.57.57,0,0,0-.23,0,.36.36,0,0,0-.17.13.38.38,0,0,0-.07.21.47.47,0,0,0,0,.23.59.59,0,0,0,.16.2,2.57,2.57,0,0,0,.34.22,2.35,2.35,0,0,1,.43.3.92.92,0,0,1,.22.31,1,1,0,0,1-.09.86.83.83,0,0,1-.39.3,1.42,1.42,0,0,1-.58.09l-.48,0-.47-.1,0-.7Z"/><path class="a" d="M30.16,56.83c-5.58,0-8.69-2.52-12.3-5.44a31.43,31.43,0,0,0-7-4.65A17.81,17.81,0,0,0,.08,45.66L0,45.26a18.21,18.21,0,0,1,11.07,1.11,31.63,31.63,0,0,1,7,4.69c3.57,2.89,6.63,5.37,12.06,5.37s8.5-2.48,12-5.35a31.64,31.64,0,0,1,7.05-4.71,18.16,18.16,0,0,1,10.11-1.28l-.06.4a17.7,17.7,0,0,0-9.88,1.25,31.43,31.43,0,0,0-7,4.65C38.86,54.31,35.74,56.83,30.16,56.83Z"/><path class="a" d="M30.16,63.65c-8,0-12.75-3.86-16.58-7A26,26,0,0,0,8.14,53a11,11,0,0,0-6.9-.6L1.15,52a11.4,11.4,0,0,1,7.15.62,26.1,26.1,0,0,1,5.53,3.77c3.78,3.06,8.49,6.87,16.33,6.87s12.55-3.81,16.33-6.87A26.1,26.1,0,0,1,52,52.6a11.27,11.27,0,0,1,6.19-.8l-.06.4a10.68,10.68,0,0,0-6,.77,25.89,25.89,0,0,0-5.44,3.72C42.92,59.79,38.15,63.65,30.16,63.65Z"/><path class="a" d="M78.05,25.09a11.69,11.69,0,0,1-3.85.69,6.45,6.45,0,0,1-4.69-1.66,6.46,6.46,0,0,1-1.75-4.67c0-3.74,2.59-6.48,6.79-6.48a7.76,7.76,0,0,1,3.13.58l-.39,1.32a6.5,6.5,0,0,0-2.77-.54,4.69,4.69,0,0,0-5,5c0,3.18,1.92,5.06,4.84,5.06a5.28,5.28,0,0,0,2.16-.33V20.36H73.92v-1.3h4.13Z"/><path class="a" d="M91.25,19.25c0,4.32-2.62,6.61-5.83,6.61s-5.64-2.57-5.64-6.37c0-4,2.48-6.59,5.83-6.59S91.25,15.52,91.25,19.25Zm-9.74.2c0,2.68,1.45,5.08,4,5.08s4-2.36,4-5.21c0-2.49-1.3-5.1-4-5.1S81.52,16.69,81.52,19.45Z"/><path class="a" d="M104.08,19.25c0,4.32-2.62,6.61-5.83,6.61s-5.64-2.57-5.64-6.37c0-4,2.48-6.59,5.83-6.59S104.08,15.52,104.08,19.25Zm-9.74.2c0,2.68,1.45,5.08,4,5.08s4-2.36,4-5.21c0-2.49-1.3-5.1-4-5.1S94.34,16.69,94.34,19.45Z"/><path class="a" d="M106.19,13.27a23.19,23.19,0,0,1,3.44-.26,7.18,7.18,0,0,1,5.08,1.56,5.78,5.78,0,0,1,1.77,4.5A6.64,6.64,0,0,1,114.67,24a7.73,7.73,0,0,1-5.55,1.81,26.22,26.22,0,0,1-2.94-.15Zm1.62,11.09a10.21,10.21,0,0,0,1.64.09c3.46,0,5.34-1.94,5.34-5.32,0-3-1.66-4.84-5.08-4.84a9.2,9.2,0,0,0-1.9.17Z"/><path class="a" d="M118.36,23.68a5.74,5.74,0,0,0,2.9.82c1.66,0,2.63-.87,2.63-2.14s-.67-1.84-2.36-2.49c-2-.73-3.31-1.79-3.31-3.56,0-2,1.62-3.41,4.06-3.41a5.7,5.7,0,0,1,2.77.61l-.45,1.32a5,5,0,0,0-2.38-.6c-1.71,0-2.36,1-2.36,1.88,0,1.17.76,1.75,2.49,2.42,2.12.82,3.2,1.84,3.2,3.69s-1.43,3.61-4.39,3.61A6.48,6.48,0,0,1,118,25Z"/><path class="a" d="M139.57,25.65c-.35-.35-.69-.71-1.17-1.23a5.14,5.14,0,0,1-3.67,1.43,3.55,3.55,0,0,1-3.85-3.52,4.12,4.12,0,0,1,2.46-3.67v-.06a4.31,4.31,0,0,1-1-2.62,3,3,0,0,1,3.18-3.09,2.61,2.61,0,0,1,2.77,2.66c0,1.32-.76,2.36-2.76,3.35V19c1.06,1.23,2.25,2.61,3.05,3.5a9.2,9.2,0,0,0,1.21-3.67h1.49a9.54,9.54,0,0,1-1.81,4.64c.67.71,1.32,1.42,2.07,2.22Zm-2-2.16c-.75-.82-2.14-2.35-3.54-3.95a3.08,3.08,0,0,0-1.62,2.55A2.48,2.48,0,0,0,135,24.63,3.51,3.51,0,0,0,137.59,23.49Zm-3.82-7.65a3.52,3.52,0,0,0,.95,2.25c1.27-.73,2.08-1.4,2.08-2.46A1.48,1.48,0,0,0,135.36,14,1.63,1.63,0,0,0,133.78,15.84Z"/><path class="a" d="M68.28,42.68a5.74,5.74,0,0,0,2.9.82c1.66,0,2.63-.87,2.63-2.14s-.67-1.84-2.36-2.49c-2-.73-3.31-1.79-3.31-3.56,0-2,1.62-3.41,4.06-3.41a5.7,5.7,0,0,1,2.77.61l-.45,1.32a5,5,0,0,0-2.38-.6c-1.71,0-2.36,1-2.36,1.88,0,1.17.76,1.75,2.49,2.42,2.12.82,3.2,1.84,3.2,3.69S74,44.84,71.07,44.84a6.48,6.48,0,0,1-3.2-.8Z"/><path class="a" d="M84.18,38.77H79.3v4.52h5.44v1.36H77.68V32.1h6.78v1.36H79.3v4h4.88Z"/><path class="a" d="M86.84,32.27A16.86,16.86,0,0,1,89.95,32a5.13,5.13,0,0,1,3.63,1,3.13,3.13,0,0,1,1,2.38,3.3,3.3,0,0,1-2.36,3.2v.06A3.13,3.13,0,0,1,94,41.21a19.92,19.92,0,0,0,1,3.44H93.34a16.21,16.21,0,0,1-.84-3c-.37-1.73-1-2.38-2.51-2.44H88.46v5.44H86.84ZM88.46,38h1.66c1.73,0,2.83-.95,2.83-2.38,0-1.62-1.17-2.33-2.88-2.35a6.69,6.69,0,0,0-1.6.15Z"/><path class="a" d="M99.91,44.65,95.81,32.1h1.75l2,6.18c.54,1.69,1,3.22,1.34,4.69h0c.35-1.45.88-3,1.43-4.67l2.12-6.2h1.73L101.7,44.65Z"/><path class="a" d="M109.16,32.1V44.65h-1.62V32.1Z"/><path class="a" d="M120.76,44.24a8,8,0,0,1-3.31.6c-3.54,0-6.2-2.23-6.2-6.35a6.24,6.24,0,0,1,6.55-6.59,6.73,6.73,0,0,1,3,.56l-.39,1.32a5.9,5.9,0,0,0-2.53-.52c-2.94,0-4.9,1.88-4.9,5.17,0,3.07,1.77,5,4.82,5a6.49,6.49,0,0,0,2.64-.52Z"/><path class="a" d="M129.29,38.77h-4.88v4.52h5.44v1.36h-7.05V32.1h6.78v1.36h-5.16v4h4.88Z"/><path class="a" d="M131.73,42.68a5.74,5.74,0,0,0,2.9.82c1.66,0,2.63-.87,2.63-2.14s-.67-1.84-2.36-2.49c-2-.73-3.31-1.79-3.31-3.56,0-2,1.62-3.41,4.06-3.41a5.7,5.7,0,0,1,2.77.61L138,33.83a5,5,0,0,0-2.38-.6c-1.71,0-2.36,1-2.36,1.88,0,1.17.76,1.75,2.49,2.42,2.12.82,3.2,1.84,3.2,3.69s-1.43,3.61-4.39,3.61a6.48,6.48,0,0,1-3.2-.8Z"/><path class="a" d="M145.08,32.27a23.19,23.19,0,0,1,3.44-.26,7.18,7.18,0,0,1,5.08,1.56,5.78,5.78,0,0,1,1.77,4.5A6.64,6.64,0,0,1,153.56,43,7.73,7.73,0,0,1,148,44.76a26.22,26.22,0,0,1-2.94-.15Zm1.62,11.09a10.21,10.21,0,0,0,1.64.09c3.46,0,5.34-1.94,5.34-5.32,0-3-1.66-4.84-5.08-4.84a9.2,9.2,0,0,0-1.9.17Z"/><path class="a" d="M164,38.77H159.1v4.52h5.44v1.36h-7.05V32.1h6.78v1.36H159.1v4H164Z"/><path class="a" d="M168.67,40.7l-1.3,3.95h-1.67l4.26-12.55h2l4.28,12.55h-1.73l-1.34-3.95Zm4.11-1.27-1.23-3.61c-.28-.82-.46-1.56-.65-2.29h0c-.19.74-.39,1.51-.63,2.27L169,39.44Z"/><path class="a" d="M178,32.1h1.62V43.29H185v1.36h-7Z"/><path class="a" d="M186.59,42.68a5.74,5.74,0,0,0,2.9.82c1.66,0,2.63-.87,2.63-2.14s-.67-1.84-2.36-2.49c-2-.73-3.31-1.79-3.31-3.56,0-2,1.62-3.41,4.06-3.41a5.7,5.7,0,0,1,2.77.61l-.45,1.32a5,5,0,0,0-2.38-.6c-1.71,0-2.36,1-2.36,1.88,0,1.17.76,1.75,2.49,2.42,2.12.82,3.2,1.84,3.2,3.69s-1.43,3.61-4.39,3.61a6.48,6.48,0,0,1-3.2-.8Z"/></svg>